<svg id="visual" viewBox="0 0 900 600" width="900" height="600" xmlns="http://www.w3.org/2000/svg" xmlns:xlink="http://www.w3.org/1999/xlink" version="1.1"><rect x="0" y="0" width="900" height="600" fill="#002233"></rect><path d="M0 435L13.7 450.8C27.3 466.7 54.7 498.3 82 501.3C109.3 504.3 136.7 478.7 163.8 468C191 457.3 218 461.7 245.2 463.2C272.3 464.7 299.7 463.3 327 458.2C354.3 453 381.7 444 409 451.8C436.3 459.7 463.7 484.3 491 490C518.3 495.7 545.7 482.3 573 479.5C600.3 476.7 627.7 484.3 654.8 484.2C682 484 709 476 736.2 472.5C763.3 469 790.7 470 818 464.7C845.3 459.3 872.7 447.7 886.3 441.8L900 436L900 601L886.3 601C872.7 601 845.3 601 818 601C790.7 601 763.3 601 736.2 601C709 601 682 601 654.8 601C627.7 601 600.3 601 573 601C545.7 601 518.3 601 491 601C463.7 601 436.3 601 409 601C381.7 601 354.3 601 327 601C299.7 601 272.3 601 245.2 601C218 601 191 601 163.8 601C136.7 601 109.3 601 82 601C54.7 601 27.3 601 13.7 601L0 601Z" fill="#0066FF" stroke-linecap="round" stroke-linejoin="miter"></path></svg>